<mxfile host="app.diagrams.net" modified="2023-12-11T16:25:56.394Z" agent="Mozilla/5.0 (Macintosh; Intel Mac OS X 10_15_7) AppleWebKit/537.36 (KHTML, like Gecko) Chrome/119.0.0.0 Safari/537.36" version="22.1.7" etag="0MnqIaSL-9o887ePkFtH" type="github">
  <diagram name="Page-1" id="CyuAK5O2ngBxA0gHdHQv">
    <mxGraphModel>
      <root>
        <mxCell id="0" />
        <mxCell id="1" parent="0" />
      </root>
    </mxGraphModel>
  </diagram>
</mxfile>
